<svg xmlns="http://www.w3.org/2000/svg" viewBox="0 0 64 64" shape-rendering="crispEdges">
  <!-- Light blue blob body -->
  <circle cx="32" cy="40" r="20" fill="#88d8ee"/>
  <circle cx="32" cy="36" r="16" fill="#98e0f0"/>
  <circle cx="24" cy="44" r="10" fill="#88d8ee"/>
  <circle cx="40" cy="44" r="10" fill="#88d8ee"/>
  <!-- Lighter face -->
  <circle cx="32" cy="38" r="12" fill="#b0f0ff"/>
  <!-- Star on top -->
  <polygon points="32,4 34,14 44,14 36,20 38,30 32,24 26,30 28,20 20,14 30,14" fill="#f0a830"/>
  <polygon points="32,8 33,14 40,14 35,18 36,26 32,22 28,26 29,18 24,14 31,14" fill="#ffc840"/>
  <!-- Eyes -->
  <circle cx="26" cy="36" r="4.5" fill="#1a1a2e"/>
  <circle cx="38" cy="36" r="4.5" fill="#1a1a2e"/>
  <circle cx="27" cy="35" r="2" fill="white"/>
  <circle cx="39" cy="35" r="2" fill="white"/>
  <!-- Happy mouth -->
  <path d="M28 43 Q32 47 36 43" stroke="#5098b0" fill="none" stroke-width="2"/>
  <!-- Blush -->
  <rect x="17" y="40" width="5" height="3" rx="1" fill="#e8a0b0" opacity="0.5"/>
  <rect x="42" y="40" width="5" height="3" rx="1" fill="#e8a0b0" opacity="0.5"/>
  <!-- Bubbles -->
  <circle cx="50" cy="28" r="3" fill="#c0eeff" opacity="0.6"/>
  <circle cx="54" cy="20" r="2" fill="#c0eeff" opacity="0.5"/>
  <circle cx="48" cy="16" r="2.5" fill="#c0eeff" opacity="0.4"/>
  <circle cx="10" cy="30" r="2" fill="#c0eeff" opacity="0.4"/>
  <!-- Feet -->
  <rect x="22" y="56" width="8" height="3" rx="1" fill="#78c8e0"/>
  <rect x="34" y="56" width="8" height="3" rx="1" fill="#78c8e0"/>
</svg>
