<svg xmlns="http://www.w3.org/2000/svg" viewBox="0 0 64 64" shape-rendering="crispEdges">
  <!-- Green body -->
  <rect x="16" y="26" width="32" height="26" rx="12" fill="#6ab84a"/>
  <rect x="12" y="32" width="40" height="20" rx="10" fill="#6ab84a"/>
  <!-- Lighter belly -->
  <rect x="22" y="38" width="20" height="12" rx="6" fill="#a0d88a"/>
  <!-- Red hat -->
  <rect x="20" y="14" width="24" height="14" rx="4" fill="#cc3030"/>
  <rect x="16" y="24" width="32" height="4" fill="#cc3030"/>
  <rect x="28" y="8" width="8" height="8" rx="4" fill="#cc3030"/>
  <!-- Hat brim highlight -->
  <rect x="18" y="24" width="28" height="2" fill="#e04040"/>
  <!-- Eyes -->
  <circle cx="24" cy="36" r="5" fill="#1a1a2e"/>
  <circle cx="40" cy="36" r="5" fill="#1a1a2e"/>
  <circle cx="25" cy="35" r="2" fill="white"/>
  <circle cx="41" cy="35" r="2" fill="white"/>
  <!-- Happy mouth -->
  <path d="M28 42 Q32 47 36 42" stroke="#3a6830" fill="none" stroke-width="2"/>
  <!-- Spots -->
  <circle cx="18" cy="38" r="2" fill="#5aa03a"/>
  <circle cx="46" cy="36" r="2" fill="#5aa03a"/>
  <circle cx="38" cy="28" r="1.5" fill="#5aa03a"/>
  <!-- Tail -->
  <rect x="48" y="42" width="8" height="6" rx="3" fill="#5aa83a"/>
  <!-- Feet -->
  <rect x="18" y="50" width="10" height="4" rx="2" fill="#5aa83a"/>
  <rect x="36" y="50" width="10" height="4" rx="2" fill="#5aa83a"/>
</svg>
