<svg xmlns="http://www.w3.org/2000/svg" viewBox="0 0 64 64" shape-rendering="crispEdges">
  <!-- Fluffy golden body -->
  <circle cx="32" cy="38" r="18" fill="#f0d060"/>
  <circle cx="22" cy="34" r="10" fill="#f0d060"/>
  <circle cx="42" cy="34" r="10" fill="#f0d060"/>
  <circle cx="32" cy="30" r="14" fill="#f5da70"/>
  <circle cx="26" cy="42" r="8" fill="#f0d060"/>
  <circle cx="38" cy="42" r="8" fill="#f0d060"/>
  <!-- Brown ear -->
  <circle cx="44" cy="22" r="6" fill="#a07040"/>
  <circle cx="44" cy="22" r="4" fill="#c08850"/>
  <!-- Other ear -->
  <circle cx="20" cy="22" r="5" fill="#f0d060"/>
  <!-- Eyes -->
  <circle cx="26" cy="34" r="4" fill="#1a1a2e"/>
  <circle cx="38" cy="34" r="4" fill="#1a1a2e"/>
  <circle cx="27" cy="33" r="1.5" fill="white"/>
  <circle cx="39" cy="33" r="1.5" fill="white"/>
  <!-- Nose -->
  <circle cx="32" cy="38" r="2" fill="#c0a040"/>
  <!-- Happy mouth -->
  <path d="M28 41 Q32 45 36 41" stroke="#a08030" fill="none" stroke-width="1.5"/>
  <!-- Blush -->
  <rect x="18" y="38" width="5" height="3" rx="1" fill="#e8a0a0" opacity="0.5"/>
  <rect x="41" y="38" width="5" height="3" rx="1" fill="#e8a0a0" opacity="0.5"/>
  <!-- Sparkles -->
  <polygon points="52,14 53,18 56,16 53,16 54,20" fill="#ffd700" opacity="0.8"/>
  <polygon points="8,20 9,24 12,22 9,22 10,26" fill="#ffd700" opacity="0.6"/>
  <rect x="50" y="26" width="2" height="2" fill="#ffd700" opacity="0.7"/>
  <!-- Collar -->
  <rect x="24" y="44" width="16" height="2" rx="1" fill="#a0a0cc"/>
  <!-- Feet -->
  <rect x="20" y="52" width="8" height="3" rx="1" fill="#e0c050"/>
  <rect x="36" y="52" width="8" height="3" rx="1" fill="#e0c050"/>
</svg>
