<svg xmlns="http://www.w3.org/2000/svg" viewBox="0 0 64 64" shape-rendering="crispEdges">
  <!-- Purple blob body -->
  <ellipse cx="32" cy="42" rx="20" ry="16" fill="#9060b8"/>
  <circle cx="32" cy="36" r="16" fill="#9868c0"/>
  <circle cx="24" cy="44" r="8" fill="#9060b8"/>
  <circle cx="40" cy="44" r="8" fill="#9060b8"/>
  <!-- Lighter face -->
  <circle cx="32" cy="38" r="10" fill="#a878cc"/>
  <!-- Wizard hat -->
  <polygon points="32,2 20,22 44,22" fill="#4a2878"/>
  <rect x="18" y="20" width="28" height="5" rx="2" fill="#5a3888"/>
  <!-- Hat band -->
  <rect x="20" y="21" width="24" height="3" fill="#6848a0"/>
  <!-- Hat buckle -->
  <rect x="29" y="20" width="6" height="5" fill="#a0a0cc"/>
  <rect x="30" y="21" width="4" height="3" fill="#5a3888"/>
  <!-- Hat tip bend -->
  <circle cx="36" cy="4" r="3" fill="#4a2878"/>
  <!-- Eyes -->
  <circle cx="26" cy="36" r="4.5" fill="#1a1a2e"/>
  <circle cx="38" cy="36" r="4.5" fill="#1a1a2e"/>
  <circle cx="27" cy="35" r="2" fill="white"/>
  <circle cx="39" cy="35" r="2" fill="white"/>
  <!-- Blush -->
  <rect x="18" y="40" width="5" height="3" rx="1" fill="#e8a0c0" opacity="0.6"/>
  <rect x="41" y="40" width="5" height="3" rx="1" fill="#e8a0c0" opacity="0.6"/>
  <!-- Mouth -->
  <path d="M29 43 Q32 46 35 43" stroke="#6a3898" fill="none" stroke-width="1.5"/>
  <!-- Sparkles -->
  <rect x="48" y="16" width="3" height="3" fill="#ffcc40" opacity="0.8"/>
  <rect x="52" y="22" width="2" height="2" fill="#ffcc40" opacity="0.6"/>
  <rect x="46" y="10" width="2" height="2" fill="#ffcc40" opacity="0.7"/>
</svg>
