<svg xmlns="http://www.w3.org/2000/svg" viewBox="0 0 480 320" shape-rendering="crispEdges">
  <defs>
    <radialGradient id="fireGlow" cx="50%" cy="65%" r="40%">
      <stop offset="0%" stop-color="#ff8c20" stop-opacity="0.35"/>
      <stop offset="40%" stop-color="#ff6010" stop-opacity="0.15"/>
      <stop offset="100%" stop-color="#000" stop-opacity="0"/>
    </radialGradient>
    <radialGradient id="torchL" cx="50%" cy="50%" r="50%">
      <stop offset="0%" stop-color="#40e8ff" stop-opacity="0.6"/>
      <stop offset="100%" stop-color="#40e8ff" stop-opacity="0"/>
    </radialGradient>
    <radialGradient id="torchR" cx="50%" cy="50%" r="50%">
      <stop offset="0%" stop-color="#40e8ff" stop-opacity="0.6"/>
      <stop offset="100%" stop-color="#40e8ff" stop-opacity="0"/>
    </radialGradient>
  </defs>

  <!-- Back wall -->
  <rect width="480" height="320" fill="#1a1210"/>

  <!-- Wall panels - dark wood -->
  <rect x="0" y="0" width="480" height="200" fill="#2a1c14"/>
  <!-- Wall wood grain lines -->
  <rect x="0" y="20" width="480" height="2" fill="#231812" opacity="0.5"/>
  <rect x="0" y="50" width="480" height="2" fill="#231812" opacity="0.4"/>
  <rect x="0" y="80" width="480" height="2" fill="#231812" opacity="0.5"/>
  <rect x="0" y="110" width="480" height="1" fill="#231812" opacity="0.3"/>
  <rect x="0" y="140" width="480" height="2" fill="#231812" opacity="0.5"/>
  <rect x="0" y="170" width="480" height="2" fill="#231812" opacity="0.4"/>

  <!-- Wainscoting / lower wall panel -->
  <rect x="0" y="140" width="480" height="60" fill="#221610"/>
  <rect x="0" y="140" width="480" height="3" fill="#3a2a1e"/>
  <rect x="0" y="197" width="480" height="3" fill="#3a2a1e"/>
  <!-- Panel details -->
  <rect x="20" y="148" width="60" height="44" fill="#261a12" stroke="#3a2a1e" stroke-width="1"/>
  <rect x="100" y="148" width="60" height="44" fill="#261a12" stroke="#3a2a1e" stroke-width="1"/>
  <rect x="320" y="148" width="60" height="44" fill="#261a12" stroke="#3a2a1e" stroke-width="1"/>
  <rect x="400" y="148" width="60" height="44" fill="#261a12" stroke="#3a2a1e" stroke-width="1"/>

  <!-- Floor -->
  <rect x="0" y="200" width="480" height="120" fill="#1e1410"/>
  <!-- Floor boards -->
  <rect x="0" y="200" width="480" height="2" fill="#3a2a1e"/>
  <rect x="0" y="220" width="480" height="1" fill="#2a1c14" opacity="0.6"/>
  <rect x="0" y="245" width="480" height="1" fill="#2a1c14" opacity="0.5"/>
  <rect x="0" y="270" width="480" height="1" fill="#2a1c14" opacity="0.4"/>
  <rect x="0" y="295" width="480" height="1" fill="#2a1c14" opacity="0.3"/>
  <!-- Floor board vertical gaps -->
  <rect x="60" y="200" width="1" fill="#160e0a" height="120" opacity="0.4"/>
  <rect x="140" y="200" width="1" fill="#160e0a" height="120" opacity="0.3"/>
  <rect x="200" y="200" width="1" fill="#160e0a" height="120" opacity="0.4"/>
  <rect x="280" y="200" width="1" fill="#160e0a" height="120" opacity="0.3"/>
  <rect x="340" y="200" width="1" fill="#160e0a" height="120" opacity="0.4"/>
  <rect x="420" y="200" width="1" fill="#160e0a" height="120" opacity="0.3"/>

  <!-- FIREPLACE - Stone chimney -->
  <rect x="175" y="0" width="130" height="200" fill="#4a3a30"/>
  <!-- Chimney bricks -->
  <rect x="175" y="0" width="130" height="8" fill="#5a4a3e"/>
  <rect x="175" y="10" width="65" height="8" fill="#5a4a3e"/>
  <rect x="240" y="10" width="65" height="8" fill="#4e3e32"/>
  <rect x="175" y="20" width="40" height="8" fill="#4e3e32"/>
  <rect x="215" y="20" width="50" height="8" fill="#5a4a3e"/>
  <rect x="265" y="20" width="40" height="8" fill="#4e3e32"/>
  <rect x="175" y="30" width="65" height="8" fill="#5a4a3e"/>
  <rect x="240" y="30" width="65" height="8" fill="#4e3e32"/>
  <rect x="175" y="40" width="40" height="8" fill="#4e3e32"/>
  <rect x="215" y="40" width="50" height="8" fill="#5a4a3e"/>
  <rect x="265" y="40" width="40" height="8" fill="#4e3e32"/>
  <rect x="175" y="50" width="65" height="8" fill="#5a4a3e"/>
  <rect x="240" y="50" width="65" height="8" fill="#4e3e32"/>
  <rect x="175" y="60" width="40" height="8" fill="#4e3e32"/>
  <rect x="215" y="60" width="50" height="8" fill="#5a4a3e"/>
  <rect x="265" y="60" width="40" height="8" fill="#4e3e32"/>
  <rect x="175" y="70" width="65" height="8" fill="#5a4a3e"/>
  <rect x="240" y="70" width="65" height="8" fill="#4e3e32"/>
  <rect x="175" y="80" width="40" height="8" fill="#4e3e32"/>
  <rect x="215" y="80" width="50" height="8" fill="#5a4a3e"/>
  <rect x="265" y="80" width="40" height="8" fill="#4e3e32"/>

  <!-- Mantle shelf -->
  <rect x="165" y="90" width="150" height="8" fill="#5a3a20"/>
  <rect x="162" y="88" width="156" height="4" fill="#6b4a2a"/>

  <!-- Fireplace opening -->
  <rect x="190" y="98" width="100" height="102" fill="#0a0806"/>
  <!-- Arch top of fireplace -->
  <rect x="195" y="93" width="90" height="8" fill="#3a2a20"/>
  <rect x="200" y="90" width="80" height="6" fill="#4a3a30"/>

  <!-- Fire -->
  <rect x="210" y="160" width="60" height="30" fill="#ff8c10"/>
  <rect x="215" y="150" width="50" height="15" fill="#ffaa20"/>
  <rect x="220" y="140" width="40" height="14" fill="#ff6600"/>
  <rect x="225" y="130" width="30" height="14" fill="#ff4400"/>
  <rect x="230" y="120" width="20" height="14" fill="#ff3300" opacity="0.8"/>
  <rect x="235" y="112" width="10" height="10" fill="#ff2200" opacity="0.5"/>
  <!-- Fire bright core -->
  <rect x="225" y="165" width="30" height="20" fill="#ffcc40"/>
  <rect x="230" y="155" width="20" height="15" fill="#ffe060"/>
  <!-- Embers at base -->
  <rect x="200" y="188" width="80" height="12" fill="#1a0a04"/>
  <rect x="210" y="186" width="10" height="4" fill="#cc4400"/>
  <rect x="230" y="188" width="8" height="3" fill="#ff6600"/>
  <rect x="250" y="186" width="10" height="4" fill="#cc4400"/>
  <rect x="268" y="188" width="6" height="3" fill="#ff4400"/>

  <!-- Fireplace stone surround -->
  <rect x="180" y="98" width="10" height="102" fill="#5a4a3e"/>
  <rect x="290" y="98" width="10" height="102" fill="#5a4a3e"/>
  <!-- Hearth -->
  <rect x="170" y="198" width="140" height="8" fill="#6a5a4e"/>
  <rect x="168" y="196" width="144" height="4" fill="#7a6a5e"/>

  <!-- Shield/decoration above fireplace -->
  <rect x="228" y="50" width="24" height="24" fill="#3a2818" rx="2"/>
  <rect x="232" y="54" width="16" height="16" fill="#4a3828" rx="1"/>
  <rect x="237" y="59" width="6" height="6" fill="#6080c0"/>

  <!-- LEFT BOOKSHELF -->
  <rect x="8" y="20" width="50" height="170" fill="#1e1410"/>
  <rect x="8" y="20" width="50" height="4" fill="#3a2a1e"/>
  <rect x="8" y="60" width="50" height="3" fill="#3a2a1e"/>
  <rect x="8" y="100" width="50" height="3" fill="#3a2a1e"/>
  <rect x="8" y="140" width="50" height="3" fill="#3a2a1e"/>
  <rect x="8" y="186" width="50" height="4" fill="#3a2a1e"/>
  <!-- Shelf sides -->
  <rect x="8" y="20" width="4" height="170" fill="#3a2a1e"/>
  <rect x="54" y="20" width="4" height="170" fill="#3a2a1e"/>
  <!-- Books row 1 -->
  <rect x="14" y="28" width="8" height="28" fill="#8b3040"/>
  <rect x="23" y="30" width="6" height="26" fill="#304880"/>
  <rect x="30" y="26" width="7" height="30" fill="#408040"/>
  <rect x="38" y="29" width="6" height="27" fill="#806030"/>
  <rect x="45" y="27" width="7" height="29" fill="#604080"/>
  <!-- Books row 2 -->
  <rect x="14" y="66" width="7" height="30" fill="#406080"/>
  <rect x="22" y="68" width="8" height="28" fill="#904040"/>
  <rect x="31" y="65" width="6" height="31" fill="#408060"/>
  <rect x="38" y="67" width="7" height="29" fill="#806040"/>
  <rect x="46" y="66" width="6" height="30" fill="#604060"/>
  <!-- Books row 3 -->
  <rect x="14" y="106" width="8" height="30" fill="#705030"/>
  <rect x="23" y="108" width="7" height="28" fill="#405880"/>
  <rect x="31" y="105" width="6" height="31" fill="#804060"/>
  <rect x="38" y="107" width="8" height="29" fill="#306050"/>
  <rect x="47" y="106" width="5" height="30" fill="#806040"/>
  <!-- Shelf 4 - potions/items -->
  <rect x="16" y="148" width="10" height="12" fill="#305040"/>
  <rect x="16" y="145" width="10" height="4" fill="#406050" rx="2"/>
  <rect x="32" y="150" width="8" height="10" fill="#604050"/>
  <rect x="44" y="146" width="8" height="14" fill="#405060"/>

  <!-- RIGHT BOOKSHELF -->
  <rect x="422" y="20" width="50" height="170" fill="#1e1410"/>
  <rect x="422" y="20" width="50" height="4" fill="#3a2a1e"/>
  <rect x="422" y="60" width="50" height="3" fill="#3a2a1e"/>
  <rect x="422" y="100" width="50" height="3" fill="#3a2a1e"/>
  <rect x="422" y="140" width="50" height="3" fill="#3a2a1e"/>
  <rect x="422" y="186" width="50" height="4" fill="#3a2a1e"/>
  <rect x="422" y="20" width="4" height="170" fill="#3a2a1e"/>
  <rect x="468" y="20" width="4" height="170" fill="#3a2a1e"/>
  <!-- Books -->
  <rect x="428" y="28" width="7" height="28" fill="#904050"/>
  <rect x="436" y="30" width="8" height="26" fill="#405080"/>
  <rect x="445" y="27" width="6" height="29" fill="#508040"/>
  <rect x="452" y="29" width="7" height="27" fill="#805040"/>
  <rect x="460" y="26" width="6" height="30" fill="#604080"/>
  <rect x="428" y="66" width="8" height="30" fill="#406060"/>
  <rect x="437" y="68" width="6" height="28" fill="#805040"/>
  <rect x="444" y="65" width="7" height="31" fill="#408050"/>
  <rect x="452" y="67" width="8" height="29" fill="#604050"/>
  <rect x="461" y="66" width="5" height="30" fill="#806060"/>
  <rect x="428" y="106" width="7" height="30" fill="#705040"/>
  <rect x="436" y="108" width="8" height="28" fill="#405080"/>
  <rect x="445" y="105" width="6" height="31" fill="#804050"/>
  <rect x="452" y="107" width="7" height="29" fill="#306060"/>
  <rect x="460" y="106" width="6" height="30" fill="#806050"/>
  <rect x="430" y="148" width="8" height="12" fill="#504060"/>
  <rect x="442" y="150" width="10" height="10" fill="#405040"/>
  <rect x="456" y="146" width="8" height="14" fill="#605040"/>

  <!-- LEFT WINDOW -->
  <rect x="75" y="30" width="44" height="56" fill="#1a3050"/>
  <rect x="75" y="30" width="44" height="56" fill="none" stroke="#4a3a2a" stroke-width="4"/>
  <rect x="95" y="30" width="3" height="56" fill="#4a3a2a"/>
  <rect x="75" y="55" width="44" height="3" fill="#4a3a2a"/>
  <!-- Window light -->
  <rect x="79" y="34" width="14" height="19" fill="#203858" opacity="0.8"/>
  <rect x="101" y="34" width="14" height="19" fill="#203858" opacity="0.8"/>
  <rect x="79" y="60" width="14" height="22" fill="#1a3050" opacity="0.8"/>
  <rect x="101" y="60" width="14" height="22" fill="#1a3050" opacity="0.8"/>
  <!-- Curtains -->
  <rect x="70" y="24" width="54" height="6" fill="#5a3020"/>
  <rect x="70" y="30" width="10" height="50" fill="#6a2030" opacity="0.7"/>
  <rect x="114" y="30" width="10" height="50" fill="#6a2030" opacity="0.7"/>

  <!-- RIGHT WINDOW -->
  <rect x="361" y="30" width="44" height="56" fill="#1a3050"/>
  <rect x="361" y="30" width="44" height="56" fill="none" stroke="#4a3a2a" stroke-width="4"/>
  <rect x="381" y="30" width="3" height="56" fill="#4a3a2a"/>
  <rect x="361" y="55" width="44" height="3" fill="#4a3a2a"/>
  <rect x="365" y="34" width="14" height="19" fill="#203858" opacity="0.8"/>
  <rect x="387" y="34" width="14" height="19" fill="#203858" opacity="0.8"/>
  <rect x="365" y="60" width="14" height="22" fill="#1a3050" opacity="0.8"/>
  <rect x="387" y="60" width="14" height="22" fill="#1a3050" opacity="0.8"/>
  <rect x="356" y="24" width="54" height="6" fill="#5a3020"/>
  <rect x="356" y="30" width="10" height="50" fill="#6a2030" opacity="0.7"/>
  <rect x="400" y="30" width="10" height="50" fill="#6a2030" opacity="0.7"/>

  <!-- WALL SCONCE LEFT (torch) -->
  <rect x="145" y="50" width="8" height="14" fill="#3a3030"/>
  <rect x="143" y="46" width="12" height="6" fill="#4a4040"/>
  <!-- Flame -->
  <rect x="146" y="36" width="6" height="10" fill="#40e0ff"/>
  <rect x="147" y="32" width="4" height="6" fill="#80f0ff"/>
  <rect x="148" y="28" width="2" height="5" fill="#b0f8ff" opacity="0.7"/>
  <!-- Torch glow -->
  <circle cx="149" cy="40" r="20" fill="url(#torchL)"/>

  <!-- WALL SCONCE RIGHT (torch) -->
  <rect x="327" y="50" width="8" height="14" fill="#3a3030"/>
  <rect x="325" y="46" width="12" height="6" fill="#4a4040"/>
  <rect x="328" y="36" width="6" height="10" fill="#40e0ff"/>
  <rect x="329" y="32" width="4" height="6" fill="#80f0ff"/>
  <rect x="330" y="28" width="2" height="5" fill="#b0f8ff" opacity="0.7"/>
  <circle cx="331" cy="40" r="20" fill="url(#torchR)"/>

  <!-- RUG on floor -->
  <ellipse cx="240" cy="260" rx="100" ry="35" fill="#3a2018"/>
  <ellipse cx="240" cy="260" rx="85" ry="28" fill="#4a2a1a"/>
  <ellipse cx="240" cy="260" rx="65" ry="20" fill="#3a2018"/>
  <ellipse cx="240" cy="260" rx="20" ry="8" fill="#4a2a1a"/>

  <!-- Cushions / poufs -->
  <ellipse cx="150" cy="250" rx="22" ry="14" fill="#4a4050"/>
  <ellipse cx="150" cy="246" rx="20" ry="10" fill="#5a5060"/>
  <ellipse cx="330" cy="255" rx="20" ry="12" fill="#6a3030"/>
  <ellipse cx="330" cy="252" rx="18" ry="9" fill="#7a3838"/>
  <!-- Small cushion -->
  <ellipse cx="190" cy="270" rx="14" ry="9" fill="#305050"/>
  <ellipse cx="190" cy="268" rx="12" ry="7" fill="#3a6060"/>

  <!-- Warm fireplace glow overlay -->
  <rect x="0" y="0" width="480" height="320" fill="url(#fireGlow)"/>

  <!-- Vignette edges -->
  <rect x="0" y="0" width="30" height="320" fill="#0a0806" opacity="0.5"/>
  <rect x="450" y="0" width="30" height="320" fill="#0a0806" opacity="0.5"/>
  <rect x="0" y="0" width="480" height="15" fill="#0a0806" opacity="0.6"/>
  <rect x="0" y="305" width="480" height="15" fill="#0a0806" opacity="0.4"/>
</svg>
